<?xml version="1.0" encoding="iso-8859-1"?>
<!DOCTYPE svg PUBLIC "-//W3C//DTD SVG 20000303 Stylable//EN"
	"http://www.w3.org/TR/2001/REC-SVG-20010904/DTD/svg10.dtd">

<svg width="100%" height="100%" preserveAspectRatio="xMidYMax" viewBox="316255.624764 4295614.720797 18150.788642 22600.703594">
<title>Libre Map Project</title>
<g transform="scale(1.0,-1.0) translate(0,-8613830.145188)">
<g id="Unknown_Area_Type_st11_d00_e00" style="fill:none;stroke:rgb(1,0,0);stroke-width:0.000000;stroke-linecap:round">
	<path d="M322239.8 4317288L323246.3 4318215 323644.9 4317829 323661.9 4317812 323661.9 4317812 324475.7 4316979 325186.0 4316253 325399.1 4316035 325551.3 4315866 326017.3 4315378 326017.3 4315378 326508.3 4314845 326508.3 4314845 326788.0 4314556 326967.9 4314370 327384.3 4313939 327623.0 4313692 327989.4 4313313 328617.4 4312664 329559.6 4311690 329828.4 4311412 329832.3 4311408 329836.5 4311404 330017.3 4311217 330136.0 4311095 330309.9 4310915 330907.1 4310298 331645.6 4309535 332225.6 4308937 332527.2 4308615 333212.9 4307885 333511.4 4307567 333976.6 4307072 334087.2 4306954 334406.4 4306615 334282.4 4306495 334065.9 4306289 334065.9 4306289 333944.3 4306173 333590.7 4305836 333529.8 4305778 333450.1 4305702 333079.1 4305346 332372.5 4304667 332253.4 4304553 332177.9 4304480 332148.6 4304452 331360.7 4303696 331113.6 4303459 330836.3 4303193 330482.6 4302889 330100.0 4302513 329987.6 4302403 329769.7 4302189 329641.3 4302062 329464.7 4301889 329442.0 4301867 329345.1 4301771 329225.9 4301654 328965.8 4301399 328791.1 4301227 328193.9 4300640 327736.9 4300234 327382.6 4299918 327189.9 4299747 327134.9 4299698 327024.9 4299600 326672.0 4299227 326550.0 4299098 326375.8 4298915 326253.3 4298873 326253.3 4298873 325557.9 4298187 322949.2 4295615 322949.2 4295615 322946.2 4296647 323250.3 4298206 323052.3 4298288 323003.7 4298722 322979.8 4298934 323084.5 4299731 322997.8 4300133 322827.9 4300303 322706.7 4300317 322627.0 4300252 322509.2 4300421 322510.0 4300843 322583.7 4301030 322800.7 4301025 323577.0 4301175 323694.2 4302149 323174.2 4303435 323068.7 4303696 323107.1 4303861 323095.5 4304117 322973.0 4304464 322745.8 4304780 322566.5 4304917 322461.7 4304886 322543.7 4304673 322478.8 4304486 322234.3 4304425 322049.7 4304707 322072.0 4304928 321821.5 4305367 321728.3 4305469 321463.5 4305481 321029.9 4306440 320959.0 4306716 320727.0 4307623 320650.4 4307692 320487.9 4307795 320041.8 4307862 319831.5 4307894 319441.5 4307952 318753.5 4308224 318454.4 4308419 317817.3 4309011 317631.1 4309216 317498.8 4309605 317395.5 4309909 316795.7 4310601 316527.8 4311018 316424.1 4311409 316255.6 4311624 316255.6 4311624 316879.3 4312223 317191.7 4312523 317621.6 4312936 317957.3 4313205 317957.3 4313205 318172.1 4313422 318774.0 4314031 319276.7 4314503 319757.1 4314955 320011.3 4315194 320514.9 4315668 320891.9 4316023 320962.1 4316089 321204.0 4316317 321320.6 4316427 322069.3 4317131 322239.8 4317288Z"/>
</g>
<g id="Unknown_Line_Type_st11_d00_e00" style="fill:none;stroke:rgb(0,0,0);stroke-width:4.993681;stroke-linecap:round">
	<polyline points="322239.8,4317288 323246.3,4318215 323644.9,4317829 323661.9,4317812"/>
	<polyline points="326017.3,4315378 325551.3,4315866 325399.1,4316035 325186.0,4316253 324475.7,4316979 323661.9,4317812"/>
	<polyline points="317957.3,4313206 318172.1,4313423 318774.0,4314031 319276.7,4314503 319757.1,4314955 320011.3,4315194 320514.9,4315668 320891.9,4316023 320962.1,4316089 321204.0,4316317 321320.6,4316427 322069.3,4317131 322239.8,4317288"/>
	<polyline points="326508.3,4314845 326017.3,4315378"/>
	<polyline points="326508.3,4314845 326788.0,4314556 326967.9,4314370 327384.3,4313939 327623.0,4313692 327989.4,4313313 328617.4,4312664 329559.6,4311690 329828.4,4311412 329832.3,4311408 329836.5,4311404 330017.3,4311217 330136.0,4311095 330309.9,4310915 330907.1,4310298 331645.6,4309535 332225.6,4308937 332527.2,4308615 333212.9,4307885 333511.4,4307567 333976.6,4307072 334087.2,4306955 334406.4,4306615 334282.4,4306495 334065.9,4306289"/>
	<polyline points="316255.6,4311624 316879.3,4312223 317191.7,4312523 317621.6,4312936 317957.3,4313206"/>
	<polyline points="316255.6,4311624 316424.1,4311409 316527.8,4311018 316795.7,4310601 317395.5,4309909 317498.8,4309605 317631.1,4309216 317817.3,4309011 318454.4,4308419 318753.5,4308224 319441.5,4307953 319831.5,4307894 320041.8,4307862 320487.9,4307795 320650.4,4307692 320727.0,4307623 320959.0,4306716 321029.9,4306440 321463.5,4305481 321728.3,4305469 321821.5,4305367 322072.0,4304928 322049.7,4304707 322234.3,4304425 322478.8,4304486 322543.7,4304673 322461.7,4304886 322566.5,4304917 322745.8,4304780 322973.0,4304464 323095.5,4304117 323107.1,4303861 323068.7,4303696 323174.2,4303435 323694.2,4302149 323577.0,4301175 322800.7,4301026 322583.7,4301030 322510.0,4300843 322509.2,4300421 322627.0,4300252 322706.7,4300317 322827.9,4300303 322997.8,4300133 323084.5,4299731 322979.8,4298934 323003.7,4298722 323052.3,4298288 323250.3,4298206 322946.2,4296647 322949.2,4295615"/>
	<polyline points="326253.3,4298873 326375.8,4298915 326550.0,4299098 326672.0,4299227 327024.9,4299600 327134.9,4299698 327189.9,4299747 327382.6,4299918 327736.9,4300234 328193.9,4300640 328791.1,4301227 328965.8,4301399 329225.9,4301654 329345.1,4301771 329442.0,4301867 329464.7,4301889 329641.3,4302062 329769.7,4302189 329987.6,4302403 330100.0,4302513 330482.6,4302889 330836.3,4303193 331113.6,4303459 331360.7,4303696 332148.6,4304452 332177.9,4304480 332253.4,4304553 332372.5,4304667 333079.1,4305346 333450.1,4305702 333529.8,4305778 333590.7,4305836 333944.3,4306173 334065.9,4306289"/>
	<polyline points="322949.2,4295615 325557.9,4298187 326253.3,4298873"/>
</g>
</g>
</svg>
