<?xml version="1.0" encoding="iso-8859-1"?>
<!DOCTYPE svg PUBLIC "-//W3C//DTD SVG 20000303 Stylable//EN"
	"http://www.w3.org/TR/2001/REC-SVG-20010904/DTD/svg10.dtd">

<svg width="100%" height="100%" preserveAspectRatio="xMidYMax" viewBox="12.711167 456.567074 29.566845 18.433033">
<title>Libre Map Project</title>
<g transform="scale(1.0,-1.0) translate(0,-931.567181)">
<g id="Unknown_Area_Type_st25_d00_e00" style="fill:none;stroke:rgb(1,0,0);stroke-width:0.000000;stroke-linecap:round">
	<path d="M41.179937 457.43305L41.245085 457.49921 41.370916 457.69402 41.394767 457.92232 41.378038 458.00617 41.343220 458.05887 41.316219 458.10625 41.257579 458.18689 41.224896 458.23505 41.229680 458.27721 41.358810 458.21031 41.482551 458.01801 41.838572 457.26620 41.957992 457.01442 41.957055 456.85694 41.920300 456.74658 41.909124 456.72334 41.830785 456.66788 41.744619 456.63448 41.606998 456.58117 41.492525 456.56707 41.306647 456.60027 41.178222 456.62323 40.962825 456.64197 40.923457 456.64541 40.807930 456.60744 40.641304 456.62485 40.626289 456.62642 40.245927 456.76314 40.192478 456.78237 39.923658 456.93095 39.639654 457.08809 39.590480 457.10744 39.481495 457.15032 39.393660 457.22188 39.338696 457.30124 39.323009 457.40071 39.447623 457.39475 39.541973 457.34377 39.582109 457.31632 39.616717 457.22900 39.661737 457.19875 39.704747 457.16986 39.879344 457.16741 39.983738 457.21528 40.585165 457.19879 40.598631 457.20076 40.836762 457.23565 40.856304 457.23852 40.940801 457.25247 41.105427 457.35740 41.179937 457.43305Z"/>
	<path d="M34.363079 474.99995L34.363179 474.99967 34.363179 474.99967 34.462128 474.99704 34.596972 474.95046 34.616242 474.93461 34.898027 474.70300 34.990909 474.74604 35.045616 474.78843 35.095972 474.80959 35.099960 474.81127 35.120056 474.81972 35.156690 474.82348 35.156690 474.82348 35.156628 474.82179 35.147940 474.58284 35.157607 474.49643 35.168019 474.40340 35.177119 474.32213 35.187377 474.23054 35.196439 474.14965 35.196905 474.14549 35.196955 474.14504 35.233797 473.81645 35.317581 473.46702 35.326658 473.42918 35.396636 473.25267 35.486853 473.02525 35.500256 472.95565 35.432448 472.88704 35.430939 472.84831 35.430329 472.83267 35.545211 472.74169 35.673173 472.71935 35.708197 472.69878 35.825034 472.55762 35.831723 472.49389 35.851980 472.48607 36.152632 472.37011 36.191234 472.37856 36.208702 472.38239 36.218626 472.46903 36.298688 472.55718 36.369860 472.63557 36.523563 472.76387 36.563697 472.77488 36.647342 472.79786 36.728636 472.74416 36.702864 472.61117 36.695099 472.52098 36.693630 472.50392 36.692830 472.49463 36.700239 472.44330 36.710786 472.43725 36.719574 472.43222 36.761711 472.40807 36.761773 472.40804 36.764884 472.40625 36.822389 472.41594 36.889785 472.42730 36.914960 472.43154 36.923930 472.43306 36.924011 472.43307 36.952125 472.30115 36.952547 472.20464 36.930679 472.15183 36.899429 472.15194 36.835565 472.15217 36.731784 472.08631 36.729212 472.08468 36.728666 472.08352 36.722757 472.07097 36.718065 472.06100 36.660465 471.93870 36.629784 471.87357 36.581952 471.77206 36.580115 471.76980 36.421416 471.57512 36.337649 471.55679 36.312202 471.57169 36.312233 471.61201 36.310115 471.65961 36.294649 471.68887 36.277534 471.71195 36.262442 471.71466 36.251653 471.71660 36.226392 471.71400 36.204715 471.70091 36.178542 471.65350 36.152750 471.62617 36.060523 471.52849 35.909488 471.49308 35.803842 471.46834 35.744687 471.52901 35.577111 471.46129 35.549777 471.45489 35.418639 471.42421 35.273917 471.39038 35.190827 471.37098 35.096305 471.29079 35.030802 471.26220 34.826819 471.25240 34.823581 471.25225 34.820280 471.25159 34.748067 471.23706 34.724508 471.23232 34.643577 471.21606 34.634717 471.21428 34.631653 471.20108 34.625861 471.17613 34.631019 471.15007 34.632363 471.14328 34.669855 470.95396 34.670795 470.94922 34.723887 470.92387 34.745716 470.93507 34.799494 470.92419 34.868723 470.91020 34.886053 470.87445 34.913603 470.81762 34.915926 470.81283 34.955268 470.73169 34.911857 470.58710 34.865136 470.55589 34.818411 470.60024 34.732651 470.58878 34.706807 470.57128 34.630531 470.51965 34.551464 470.46615 34.549832 470.46504 34.492405 470.37177 34.491805 470.37080 34.481536 470.34400 34.478716 470.33664 34.483927 470.31208 34.425384 470.26895 34.357299 470.31100 34.313417 470.33811 34.302531 470.34005 34.234760 470.35211 34.199082 470.33847 34.143058 470.28954 34.141424 470.28811 34.129215 470.27745 34.089975 470.24319 34.090219 470.22954 34.090220 470.22947 34.092614 470.09591 34.100012 470.02005 34.138829 469.94311 34.156397 469.93748 34.261675 469.90378 34.300538 469.87513 34.351971 469.81954 34.320507 469.77469 34.282386 469.77874 34.177457 469.78990 34.068381 469.80151 34.040441 469.91012 34.016205 470.00436 34.017628 470.18036 34.013963 470.18670 33.990662 470.22701 33.974358 470.21127 33.877478 470.11774 33.875410 470.09136 33.873222 470.06347 33.810458 470.00039 33.686488 469.87586 33.680122 469.86328 33.653519 469.81071 33.645924 469.79570 33.619556 469.68968 33.629906 469.63944 33.642153 469.63692 33.663726 469.63246 33.674182 469.57616 33.675735 469.56780 33.698996 469.51674 33.699948 469.51465 33.737522 469.50344 33.762352 469.49603 33.782525 469.47410 33.769556 469.46368 33.764857 469.44840 33.762672 469.44130 33.760236 469.40488 33.760598 469.39854 33.763066 469.35545 33.774913 469.33074 33.792583 469.29388 33.808905 469.25984 33.852861 469.16819 33.911879 469.04517 33.912642 468.98155 33.826426 469.01561 33.755459 469.09515 33.735510 469.11752 33.694218 469.12446 33.674709 469.11979 33.542354 469.08810 33.469819 469.02593 33.453896 468.97865 33.402015 468.82463 33.391771 468.79423 33.409711 468.67603 33.471563 468.58321 33.507016 468.53002 33.490355 468.47345 33.466445 468.39227 33.460307 468.37143 33.460474 468.37031 33.465234 468.33838 33.465917 468.33380 33.466390 468.33063 33.469266 468.31134 33.486152 468.27994 33.511576 468.23267 33.538861 468.18195 33.576301 468.15345 33.584051 468.14755 33.595668 468.13871 33.694846 468.14081 33.775144 468.14252 33.857887 468.16672 33.927838 468.18719 33.955206 468.14853 34.003986 468.11362 34.009290 468.10982 34.033641 468.09240 34.138286 468.07916 34.239692 468.10133 34.279501 468.16958 34.365586 468.31723 34.367324 468.34142 34.368390 468.35626 34.371433 468.39861 34.368139 468.41092 34.361192 468.43688 34.210626 468.51361 34.195755 468.54975 34.278177 468.57237 34.482758 468.57860 34.487592 468.53670 34.493291 468.48730 34.508900 468.45517 34.529757 468.41223 34.536149 468.39908 34.567321 468.33493 34.575103 468.31891 34.603211 468.27644 34.647497 468.20953 34.683946 468.17271 34.733990 468.12216 34.898882 468.10920 34.951428 468.09152 35.057269 468.05594 35.223514 467.96375 35.245019 467.95183 35.310531 467.92681 35.390433 467.89632 35.440458 467.83824 35.521663 467.66561 35.564352 467.60899 35.579999 467.58824 35.597676 467.57207 35.669043 467.50681 35.681763 467.49518 35.715130 467.46467 35.782901 467.43019 35.790004 467.35478 35.807135 467.17303 35.808189 467.16727 35.839934 466.99386 35.851120 466.98286 35.905068 466.92984 36.071525 466.59205 36.118660 466.51567 36.242919 466.31444 36.272901 466.27972 36.435185 466.09187 36.447653 466.01328 36.401254 465.97785 36.401063 465.97771 36.373169 465.95642 36.369541 465.91970 36.369522 465.91952 36.364523 465.86894 36.401981 465.67251 36.391588 465.61799 36.340266 465.62269 36.337560 465.62294 36.182589 465.52453 36.165087 465.38898 36.164238 465.38240 36.164165 465.38184 36.163616 465.37759 36.160090 465.35029 36.192520 465.24891 36.163201 465.19912 36.097582 465.17512 36.032918 465.25696 35.958431 465.26490 35.821394 465.20365 35.830223 465.15475 35.837580 465.11400 35.844432 465.10320 35.926382 464.97404 35.971108 464.92874 36.131907 464.76597 36.197875 464.69922 36.223069 464.67374 36.268072 464.66226 36.312188 464.65101 36.340241 464.68347 36.342270 464.68162 36.390936 464.63728 36.462273 464.57230 36.479699 464.55643 36.542325 464.47525 36.599887 464.44007 36.669004 464.44429 36.754095 464.52124 36.874792 464.54382 36.910763 464.51058 37.067703 464.36558 37.112212 464.32447 37.124582 464.31305 37.155488 464.22701 37.176350 464.16895 37.166893 464.11562 37.172165 464.09046 37.178054 464.06237 37.271861 463.89632 37.289563 463.86500 37.307104 463.73943 37.337544 463.52164 37.256847 463.32185 37.251362 463.30828 37.195127 463.21912 37.184608 463.14360 37.200633 463.04677 37.230729 462.99187 37.230740 462.99185 37.268016 462.92386 37.375500 462.78861 37.391948 462.76791 37.559158 462.59886 37.582781 462.57499 37.603301 462.55942 37.664784 462.51279 37.673197 462.50641 37.729754 462.46353 37.747012 462.45044 37.767412 462.43498 37.966563 462.35378 38.126619 462.28857 38.255376 462.23615 38.499528 462.18269 38.523103 462.17754 38.563161 462.16877 38.621224 462.16374 39.024716 462.12888 39.264138 462.10831 39.286741 462.09215 39.385481 462.02160 39.391843 462.01706 39.393810 462.01566 39.395480 462.01184 39.401072 461.99905 39.403738 461.99295 39.417259 461.96204 39.487907 461.88070 39.505240 461.87960 39.508894 461.87937 39.524892 461.87837 39.541570 461.89592 39.590233 461.94715 39.626765 461.98561 39.664871 462.02574 39.717661 462.08135 39.728769 462.09305 39.730651 462.09503 39.819832 462.15186 39.843028 462.16665 39.888260 462.19548 40.112647 462.29230 40.114578 462.29188 40.114924 462.29181 40.172158 462.27930 40.181864 462.28209 40.183292 462.28250 40.224336 462.29431 40.362480 462.33408 40.510593 462.37675 40.614984 462.36658 40.662071 462.36200 40.672975 462.36094 40.731035 462.38313 40.733204 462.38396 40.785031 462.40378 40.839923 462.42477 40.870396 462.43643 40.889517 462.44374 40.967976 462.46347 41.009909 462.47401 41.126383 462.50331 41.137370 462.50608 41.143929 462.50773 41.154268 462.51033 41.187071 462.52591 41.292085 462.57578 41.328169 462.59293 41.414383 462.63390 41.419586 462.63637 41.485150 462.66754 41.496469 462.67972 41.506157 462.69014 41.607866 462.79962 41.617398 462.80988 41.618228 462.81078 41.622110 462.81496 41.660285 462.89775 41.661494 462.90038 41.661175 462.97599 41.660079 463.23692 41.648701 463.38323 41.638199 463.51834 41.627424 463.65703 41.658143 463.70385 41.701988 463.77068 41.679743 463.80844 41.603329 463.82423 41.503226 463.90497 41.500326 463.95440 41.494832 464.04808 41.459389 464.22463 41.455827 464.24238 41.336076 464.25377 41.257202 464.22494 41.162114 464.05168 41.160025 463.91826 41.160449 463.87381 41.161291 463.78568 41.162725 463.77090 41.170764 463.68808 41.154588 463.66703 41.141720 463.67588 41.114865 463.73373 41.099359 463.92060 41.096743 464.35224 41.087791 464.56613 41.074973 464.87274 41.063677 464.94094 41.030280 465.14268 41.026069 465.16812 40.979835 465.31146 40.931150 465.40021 40.829518 465.52111 40.706690 465.61230 40.507976 465.72432 40.499265 465.72924 40.440416 465.73513 40.321148 465.70706 40.263076 465.67832 40.248763 465.67123 40.192204 465.61844 40.178766 465.60590 40.147844 465.54825 40.113840 465.48487 40.107646 465.44033 40.105658 465.42604 40.123437 465.35265 40.178593 465.28227 40.174957 465.26673 40.140814 465.26858 40.092678 465.29592 40.000236 465.38940 39.914177 465.55851 39.795619 465.69199 39.749570 465.72336 39.710985 465.72492 39.696231 465.76028 39.758083 465.86094 39.862078 465.92300 40.017500 465.95742 40.163093 465.96024 40.403550 465.91574 40.451802 465.89891 40.767552 465.78885 41.041587 465.64117 41.238988 465.47997 41.283325 465.42483 41.436045 465.23499 41.443119 465.22620 41.448436 465.21669 41.539002 465.05474 41.618306 464.91300 41.737306 464.65747 41.826993 464.46502 41.846264 464.40692 41.967179 464.04260 42.055474 463.68904 42.112508 463.46086 42.152151 463.30235 42.224626 462.90901 42.225544 462.90403 42.254156 462.49063 42.255592 462.46990 42.278008 462.14648 42.277262 461.99368 42.276992 461.93830 42.276992 461.93830 42.275328 461.59632 42.246321 461.43415 42.232334 461.35599 42.153595 461.18265 42.126727 461.12353 42.108747 461.08396 42.092088 461.05609 42.080885 461.03734 42.078456 461.03327 42.069716 461.03113 42.034061 461.02238 42.019131 461.01872 41.977108 460.95661 41.937715 460.88720 41.863011 460.62335 41.807826 460.38133 41.761107 460.09397 41.759877 460.08641 41.758979 460.08089 41.756989 460.07799 41.675367 459.95911 41.624583 459.94271 41.563231 459.95235 41.538949 459.98162 41.521884 460.03998 41.533689 460.06266 41.534898 460.06498 41.536689 460.06477 41.554630 460.06269 41.571673 460.06072 41.648873 460.16265 41.710592 460.32730 41.736248 460.46876 41.774158 460.67787 41.774350 460.67893 41.807197 460.77556 41.810965 460.78664 41.832755 460.85076 41.841612 460.87683 41.860972 460.93381 41.895303 461.03488 41.896380 461.03805 41.896134 461.10375 41.875621 461.17921 41.833157 461.21695 41.829289 461.22039 41.705485 461.33046 41.673236 461.34870 41.617378 461.38029 41.570248 461.38426 41.566380 461.38459 41.557494 461.38534 41.430945 461.33991 41.363606 461.33078 41.360911 461.33041 41.212630 461.31033 41.133231 461.30494 40.954581 461.29284 40.931660 461.29129 40.692202 461.21804 40.659560 461.20806 40.584445 461.18511 40.499917 461.15929 40.429241 461.16031 40.355074 461.16139 40.352163 461.16143 40.081236 461.10761 40.080954 461.10750 40.055456 461.09750 40.054438 461.09710 39.837307 461.01201 39.709151 460.96182 39.622129 460.92776 39.534713 460.84262 39.540785 460.80748 39.504869 460.73384 39.456101 460.71756 39.438335 460.73536 39.421959 460.81181 39.427901 460.90020 39.415122 460.92370 39.384163 460.98063 39.327902 461.00588 39.250452 461.00782 39.128208 460.98506 38.991718 460.95968 38.988393 460.96191 38.986389 460.96326 38.922978 461.00593 38.898825 461.01330 38.889072 461.01627 38.855456 461.02652 38.742169 461.00995 38.668921 460.97093 38.630340 460.92325 38.630937 460.89421 38.631037 460.88937 38.587094 460.80363 38.508831 460.75461 38.329374 460.70220 38.324663 460.70304 38.323971 460.70317 38.281913 460.71065 38.263268 460.71397 38.240457 460.71222 38.231006 460.71149 38.061163 460.69842 38.023653 460.69554 37.954117 460.54662 37.932408 460.51179 37.907014 460.47106 37.841406 460.36585 37.831832 460.35050 37.817093 460.32687 37.805205 460.31327 37.798903 460.30606 37.742189 460.24118 37.736757 460.23496 37.689687 460.18113 37.615246 460.13756 37.611195 460.13519 37.607828 460.13397 37.546783 460.11187 37.491132 460.10500 37.303630 460.08192 37.258022 460.08169 37.225862 460.08153 37.096172 460.08091 36.991890 460.08043 36.985980 460.07972 36.902912 460.06975 36.869961 460.06581 36.812554 460.05893 36.748724 460.05129 36.746101 460.05098 36.705570 460.04613 36.683542 460.04350 36.598991 460.03339 36.562151 460.02900 36.528379 460.02022 36.519722 460.01797 36.500602 460.01301 36.465170 460.00381 36.373264 459.97995 36.300327 459.92502 36.294511 459.92064 36.288433 459.91607 36.276589 459.89685 36.261510 459.87240 36.200456 459.77338 36.198195 459.76972 36.157548 459.74315 36.115754 459.71583 36.068355 459.70906 36.019292 459.70206 35.767099 459.52988 35.521684 459.41990 35.327092 459.24147 35.331965 459.19761 35.294234 459.14251 35.045277 458.98536 34.817809 458.98147 34.667370 458.94479 34.663323 458.94380 34.546488 458.83315 34.478522 458.76880 34.399010 458.73287 34.203942 458.72758 34.099373 458.72476 33.885516 458.67085 33.808552 458.62632 33.714760 458.60149 33.693558 458.63067 33.704340 458.66982 33.889612 458.84275 33.926802 458.83583 33.964869 458.77482 34.026025 458.76440 34.073365 458.77695 34.265168 458.84530 34.502936 459.02514 34.727903 459.10428 34.949094 459.14869 35.072656 459.29880 35.177691 459.32836 35.359395 459.48893 35.435242 459.58414 35.860061 459.84974 35.928998 459.89288 35.969121 459.91800 36.094434 459.99646 36.108047 460.00499 36.141812 460.02614 36.148183 460.03013 36.163243 460.03957 36.165379 460.04090 36.179187 460.06722 36.203113 460.11283 36.195859 460.19707 36.209713 460.28190 36.253396 460.33338 36.304221 460.36034 36.309991 460.37996 36.317944 460.40699 36.320271 460.41490 36.312380 460.47882 36.310798 460.48359 36.310226 460.48531 36.274985 460.59158 36.259328 460.63881 36.230318 460.72633 36.231908 460.74416 36.235234 460.78148 36.282818 460.85469 36.322052 460.91506 36.332852 460.93169 36.338130 460.93981 36.301594 461.02715 36.296303 461.03980 36.291073 461.04402 36.235884 461.08852 36.252979 461.14981 36.255520 461.15892 36.297071 461.18255 36.343326 461.20885 36.354262 461.21507 36.364202 461.27204 36.353661 461.31381 36.353579 461.31414 36.312254 461.47792 36.297018 461.53833 36.272770 461.56667 36.171485 461.57765 36.303156 461.70882 36.474961 461.75995 36.479421 461.78569 36.482194 461.80170 36.491661 461.85634 36.468905 461.91893 36.436396 461.93401 36.333448 461.98178 36.319495 461.98825 36.265129 461.95303 36.219280 461.95042 36.105407 462.02494 36.027099 462.05169 36.011446 462.05703 35.952716 462.07710 35.793473 462.13155 35.724621 462.17511 35.706827 462.18637 35.666030 462.16582 35.658315 462.16194 35.643013 462.15423 35.623314 462.06883 35.619301 462.05143 35.680452 461.93397 35.708284 461.72251 35.688614 461.62318 35.607584 461.65966 35.493902 461.75267 35.484722 461.76018 35.418935 461.74048 35.392998 461.73271 35.390754 461.72482 35.389000 461.71865 35.385380 461.70592 35.375622 461.67160 35.337979 461.53925 35.337806 461.53740 35.328600 461.43866 35.361774 461.36567 35.364994 461.28830 35.296816 461.14874 35.264612 461.14462 35.229387 461.18853 35.212472 461.23456 35.205256 461.25260 35.204939 461.25268 35.193102 461.25570 35.107043 461.27770 35.106724 461.27779 35.106702 461.27779 35.106675 461.27780 34.993248 461.30681 34.936694 461.32129 34.907394 461.31475 34.901815 461.31351 34.880801 461.28203 34.874024 461.20662 34.970235 461.15086 34.989044 461.09412 35.005105 461.04567 34.997522 461.02095 34.991146 461.01686 34.919670 460.97104 34.711180 460.97166 34.644137 461.01860 34.638353 461.02265 34.568280 461.00123 34.547517 460.97349 34.546719 460.97242 34.545587 460.97091 34.550045 460.92647 34.556632 460.86081 34.579795 460.63009 34.578900 460.62773 34.576046 460.62022 34.553806 460.56169 34.519573 460.56669 34.504261 460.61753 34.497940 460.63852 34.484403 460.68347 34.429676 460.86528 34.428824 460.86811 34.429560 460.87823 34.432414 460.91744 34.435281 460.95684 34.425459 460.98975 34.422700 460.99254 34.400658 461.01482 34.356067 461.03424 34.319902 461.04999 34.264078 461.07432 34.210866 461.03581 34.131313 460.97825 34.123864 460.97287 34.123863 460.97287 34.060859 460.92730 34.072106 460.91119 34.088067 460.88832 34.108945 460.85841 34.123963 460.83690 34.130995 460.82683 34.138225 460.78651 34.164713 460.63883 34.152800 460.62799 34.074913 460.66305 34.063927 460.69569 34.029805 460.79710 34.025970 460.80219 34.014046 460.81804 34.001517 460.83469 33.973096 460.83769 33.960289 460.83905 33.950993 460.84003 33.942487 460.84093 33.920793 460.82170 33.920318 460.81125 33.916390 460.72478 33.916237 460.72141 33.933529 460.66019 33.936374 460.65012 33.934736 460.64508 33.932591 460.63847 33.931386 460.63476 33.901046 460.54134 33.844003 460.46726 33.843783 460.46756 33.814808 460.50810 33.780079 460.50936 33.770446 460.50971 33.756893 460.49099 33.754215 460.48729 33.763130 460.43925 33.765349 460.42729 33.767327 460.42484 33.842202 460.33203 33.888382 460.05251 33.802951 460.05389 33.495201 459.95559 33.488169 459.95335 33.451222 459.84521 33.282756 459.75241 33.147778 459.72161 33.111517 459.69370 33.010345 459.61586 32.820993 459.69722 32.735526 459.71319 32.594493 459.73958 32.299940 459.61517 32.299940 459.61517 32.299940 459.61517 32.291402 459.88988 32.264966 460.26390 32.236268 460.67060 32.234160 460.68854 32.187578 460.78572 32.182808 460.79120 32.177507 460.79729 32.162477 460.81457 32.160428 460.84021 32.157828 460.93660 32.168656 461.02318 32.209718 461.07226 32.223266 461.21408 32.223266 461.21408 32.223334 461.21479 32.223334 461.21479 32.243196 461.40853 32.241754 461.42365 32.226877 461.42846 32.226877 461.42846 32.222714 461.42856 32.222714 461.42856 32.134406 461.45623 32.134406 461.45623 32.067170 461.47243 32.067170 461.47243 31.998425 461.49086 31.884282 461.52147 31.884282 461.52147 31.884394 461.52591 31.884394 461.52591 31.886040 461.55809 31.886040 461.55809 31.842227 461.57142 31.842227 461.57142 31.815574 461.57858 31.760442 461.59338 31.760442 461.59338 31.760395 461.59254 31.760395 461.59254 31.733822 461.59973 31.733822 461.59973 31.723085 461.60333 31.723085 461.60333 31.678575 461.68022 31.624761 461.77320 31.622567 461.77700 31.621935 461.77809 31.621935 461.77809 31.509484 461.97076 31.483016 462.01613 31.324807 462.27116 31.303247 462.30593 31.273231 462.35435 31.198673 462.47465 30.736831 462.75140 30.736831 462.75140 30.654199 462.80252 30.654199 462.80252 30.642365 462.82617 30.644460 462.87278 30.639272 462.88705 30.635635 462.89705 30.622018 462.93450 30.608555 462.95931 30.592850 462.96308 30.564222 462.98052 30.553194 463.00305 30.552938 463.02416 30.566671 463.07046 30.567306 463.09378 30.567306 463.09378 30.571173 463.11367 30.568892 463.12151 30.506713 463.27989 30.527301 463.33377 30.540717 463.34659 30.572527 463.37699 30.572527 463.37699 30.589649 463.39541 30.589649 463.39541 30.610123 463.41485 30.557801 463.50740 30.554805 463.51970 30.555935 463.52266 30.556483 463.52410 30.628179 463.71216 30.612223 463.78020 30.600510 463.83016 30.599856 463.83295 30.577576 463.92800 30.588969 464.02093 30.593596 464.05867 30.593596 464.05867 30.593656 464.06089 30.593656 464.06089 30.594377 464.06685 30.600088 464.11405 30.591983 464.11296 30.483422 464.09836 30.483422 464.09836 30.466769 464.09659 30.466769 464.09659 30.401786 464.08838 30.401786 464.08838 30.383473 464.08666 30.383473 464.08666 30.377635 464.08571 30.377635 464.08571 30.330962 464.07922 30.330962 464.07922 30.307671 464.07764 30.307671 464.07764 30.284310 464.07384 30.284310 464.07384 30.241753 464.06613 30.244868 464.17828 30.248861 464.32200 30.250853 464.39370 30.250853 464.39370 30.251744 464.39589 30.251744 464.39589 30.262078 464.72558 30.266326 464.86110 30.266326 464.86110 30.266084 464.88222 30.266084 464.88222 30.272026 465.08537 30.283009 465.46070 29.647521 465.46716 29.437578 465.46942 29.346571 465.47042 29.317004 465.47075 29.301263 465.47092 29.301263 465.47092 29.292950 465.47006 29.292950 465.47006 29.283851 465.46940 29.073683 465.45427 29.073683 465.45427 29.071166 465.45324 29.071166 465.45324 28.999960 465.45338 28.807350 465.45379 28.807350 465.45379 28.781101 465.45408 28.662611 465.45542 28.662611 465.45542 28.547611 465.45535 27.799988 465.45531 27.095116 465.45599 26.819294 465.44629 26.819294 465.44629 26.813270 465.61883 26.779730 465.62033 26.495715 465.63308 26.475977 465.63397 26.441609 465.63552 26.327677 465.64068 26.305384 465.64169 26.272404 465.64319 26.220295 465.64556 26.180924 465.64735 26.129219 465.64971 26.067314 465.65254 25.978846 465.65863 25.967439 465.65941 25.818981 465.66966 25.559654 465.68764 25.268912 465.70790 25.226637 465.70973 25.221136 465.70997 25.196246 465.71105 25.080181 465.71608 24.947679 465.72185 24.875678 465.72499 24.638449 465.73541 24.605587 465.73836 24.338925 465.76238 24.041925 465.78926 23.980877 465.79249 23.921109 465.79567 23.520003 465.81710 23.477493 465.81939 23.100039 465.83979 22.925590 465.84742 22.779290 465.85384 22.540287 465.86441 22.508118 465.86631 22.127382 465.88888 21.791206 465.90898 21.512317 465.92578 21.441014 465.93009 21.386022 465.93342 21.373683 465.93399 21.357687 465.93473 21.280280 465.93829 20.928278 465.95463 20.845924 465.95848 20.794617 465.96088 20.769582 465.95883 20.765998 465.95854 20.587842 465.94399 20.516782 465.93820 20.419307 465.93026 20.341420 465.87294 20.275998 465.87568 20.137858 465.88484 20.132296 465.94960 20.057948 465.95729 19.841607 465.97973 19.485496 466.03501 19.437853 466.04242 19.406626 466.04728 19.385782 466.04791 19.380142 466.04808 19.254673 466.05185 19.215750 466.05303 18.910345 466.06233 18.910345 466.06233 18.894854 466.03074 18.927386 466.01596 18.941363 465.99420 18.919978 465.94173 18.889413 465.89358 18.889413 465.89358 18.883709 465.89292 18.883709 465.89292 18.864256 465.90469 18.850912 465.90173 18.848737 465.88233 18.852025 465.87402 18.855872 465.86430 18.868676 465.85052 18.855081 465.82442 18.837638 465.80515 18.835918 465.77126 18.811117 465.74958 18.811117 465.74958 18.803847 465.69760 18.774546 465.69467 18.386989 465.65600 18.432773 466.08681 18.256156 466.09754 18.243024 466.09834 18.154791 466.10372 18.018789 466.11893 18.018789 466.11893 18.017846 466.11898 18.017846 466.11898 17.063978 466.17167 17.016925 466.17431 16.893929 466.18120 16.822813 466.18669 16.449948 466.21558 15.467009 466.30053 14.991128 466.34215 14.991128 466.34215 14.980751 466.34343 14.980751 466.34343 14.957996 466.34554 14.468271 466.39122 14.468271 466.39122 14.457343 466.39226 14.457343 466.39226 14.442104 466.39356 14.181148 466.41589 13.805612 466.44820 13.313791 466.49082 13.285332 466.49163 13.281115 466.49175 12.862080 466.50385 12.862080 466.50385 12.782924 466.50843 12.782924 466.50843 12.711153 466.91965 12.959241 467.66937 13.186195 468.35633 13.469940 469.21670 13.670176 469.82487 13.768519 470.12387 13.866738 470.42270 13.936063 470.63374 14.239644 471.55912 14.239644 471.55912 14.684084 472.90512 14.941371 473.68626 15.011471 473.89933 15.091585 474.14297 15.091585 474.14297 15.252766 474.13047 15.504880 474.11099 15.518963 474.10991 15.920442 474.07909 16.244381 474.05440 16.244381 474.05440 16.244381 474.05440 16.244381 474.05440 16.522557 474.03332 16.664788 474.02259 16.674910 474.02183 16.755396 474.01577 16.865390 474.00750 17.070499 473.99213 17.855661 473.93235 18.368015 473.89382 18.559555 473.87951 18.818404 473.86027 18.966229 473.84802 19.041806 473.84177 19.061054 473.84018 19.918097 473.76992 20.539025 473.71969 20.773677 473.70085 21.208208 473.66618 21.684246 473.62852 21.684246 473.62852 21.923422 473.60891 22.030699 473.60014 22.064354 473.59739 22.670009 473.54822 22.670009 473.54822 23.094947 473.51404 23.106426 473.51320 23.119244 473.51227 24.415168 473.41945 24.525214 473.41084 24.794537 473.38985 24.803572 473.38915 25.585507 473.32882 25.793625 473.31580 26.015793 473.30197 26.015793 473.30197 26.261945 473.28442 26.278223 473.28327 26.875208 473.24110 27.211132 473.21760 27.294236 473.21181 27.328419 473.20944 27.512651 473.19665 27.668611 473.18696 28.137468 473.15803 28.283438 473.14909 28.409484 473.14139 28.409484 473.14139 28.445488 473.13916 28.445488 473.13916 28.540438 473.13315 29.091068 473.09855 29.142436 473.09534 29.176944 473.09319 29.623112 473.06554 29.641561 473.06440 29.869181 473.05041 30.077670 473.03767 30.175583 473.03170 30.596655 473.00621 30.609697 473.00542 30.627431 473.00435 30.736251 472.99781 30.795308 472.99260 30.913442 472.98219 31.024546 472.97829 31.053799 472.97727 31.208276 472.97189 31.255447 473.02840 31.337683 473.12695 31.368296 473.17871 31.432329 473.28701 31.533226 473.39769 31.533601 473.39810 31.536151 473.40090 31.620671 473.46754 31.620671 473.46754 31.720565 473.49712 31.798673 473.50839 31.860732 473.48839 31.925390 473.46756 31.925390 473.46756 31.925998 473.46732 31.925998 473.46732 31.926729 473.46707 31.926729 473.46707 31.990817 473.44647 32.036535 473.43178 32.043196 473.42965 32.140645 473.39835 32.135511 473.55033 32.134784 473.57185 32.120721 473.98893 32.152795 474.02740 32.183981 474.06482 32.219545 474.10750 32.275991 474.17050 32.293533 474.18449 32.425466 474.25668 32.440492 474.26322 32.442076 474.26391 32.567745 474.31862 32.702500 474.27442 32.816943 474.23691 33.010936 474.17338 33.114895 474.13935 33.121995 474.13703 33.215923 474.43253 33.268749 474.55347 33.295348 474.60505 33.405967 474.71682 33.627780 474.75744 33.683716 474.76769 33.749969 474.77985 33.870679 474.80201 33.937130 474.81421 33.969226 474.83115 34.026886 474.86159 34.029803 474.86312 34.080279 474.88977 34.225276 474.97643 34.225276 474.97643 34.232727 474.98070 34.232727 474.98070 34.258802 474.98829 34.363079 474.99995Z"/>
	<path d="M34.740973 460.76167L34.801396 460.68136 34.822320 460.55988 34.814796 460.51709 34.813108 460.50749 34.812919 460.50641 34.808546 460.50833 34.747889 460.53498 34.745353 460.53610 34.744336 460.53798 34.685022 460.64797 34.678288 460.66046 34.678243 460.66054 34.725680 460.75443 34.734015 460.77092 34.740973 460.76167Z"/>
	<path d="M36.355348 459.20235L36.612442 459.35496 36.654860 459.34048 36.671033 459.23750 36.756140 459.21659 36.849243 459.19374 36.908450 459.22336 36.912416 459.22534 36.913520 459.22456 36.946035 459.20162 36.990528 459.10130 37.012769 459.05116 37.026343 459.02057 37.026429 459.01025 37.026429 459.01024 37.027228 458.91437 37.002635 458.77585 37.022077 458.69854 37.062580 458.61589 37.066668 458.60755 37.142808 458.53301 37.223239 458.48559 37.314903 458.46920 37.315983 458.46870 37.316162 458.46862 37.402827 458.42850 37.403836 458.42598 37.439794 458.33638 37.442874 458.30671 37.447434 458.26279 37.466856 458.25077 37.470367 458.25031 37.520619 458.24370 37.535294 458.24176 37.540241 458.24444 37.588101 458.27035 37.620367 458.31494 37.690014 458.41119 37.688368 458.50977 37.688229 458.51815 37.691036 458.52467 37.707786 458.56355 37.767092 458.63218 37.879382 458.64759 37.909973 458.37807 37.881618 458.20022 37.885064 457.90286 37.861714 457.84545 37.860437 457.84231 37.856825 457.84219 37.705063 457.83711 37.482983 457.82974 37.352334 457.84234 37.285216 457.84882 37.211066 457.85599 37.177204 457.85926 37.130986 457.86373 36.979516 457.86747 36.752184 457.87315 36.621867 457.87643 36.584697 457.87376 36.558823 457.87190 36.185959 457.84520 35.702501 457.81086 35.694352 457.81029 35.685585 457.80775 35.509405 457.75671 35.497117 457.75315 35.486031 457.74699 35.376155 457.68589 35.284844 457.60733 35.234304 457.56386 35.200745 457.48960 35.215546 457.45602 35.193252 457.39805 35.134214 457.36904 35.060901 457.41991 35.029602 457.44163 34.934298 457.50778 34.919078 457.51835 34.916084 457.52043 34.774032 457.66784 34.666479 457.82193 34.618704 457.89040 34.616700 457.89327 34.619024 457.89693 34.659773 457.96097 34.735387 457.97036 34.840123 457.98338 34.940226 457.95969 34.984874 457.93774 35.076672 457.89262 35.081060 457.89046 35.086947 457.89160 35.150948 457.90399 35.202678 457.94814 35.208072 457.95582 35.208077 457.95582 35.544446 458.43529 35.585335 458.44796 35.687275 458.55598 35.688174 458.56306 35.696574 458.62922 35.784485 458.79925 35.907869 458.91244 36.185820 459.09871 36.225756 459.12549 36.355348 459.20235Z"/>
</g>
<g id="Unknown_Line_Type_st25_d00_e00" style="fill:none;stroke:rgb(0,0,0);stroke-width:0.000500;stroke-linecap:round">
	<polyline points="34.363078,475.00011 34.363178,474.99983"/>
	<polyline points="34.363078,475.00011 34.258802,474.98844 34.232727,474.98084"/>
	<polyline points="34.232727,474.98084 34.225276,474.97657"/>
	<polyline points="34.363178,474.99983 34.462127,474.99720 34.596972,474.95059 34.616243,474.93474 34.898032,474.70302 34.990913,474.74612 35.045619,474.78852 35.095975,474.80971 35.099963,474.81139 35.120059,474.81985 35.156693,474.82362"/>
	<polyline points="34.225276,474.97657 34.080281,474.88986 34.029806,474.86319 34.026889,474.86165 33.969229,474.83118 33.937134,474.81422 33.870683,474.80204 33.749973,474.77995 33.683721,474.76782 33.627784,474.75758 33.405972,474.71698 33.295355,474.60520 33.268756,474.55361 33.215930,474.43266 33.122001,474.13712 33.114900,474.13944 33.010942,474.17341 32.816950,474.23700 32.702507,474.27456 32.567752,474.31878 32.442083,474.26407 32.440499,474.26338 32.425473,474.25684 32.293539,474.18462 32.275997,474.17062 32.219551,474.10761 32.183986,474.06492 32.152799,474.02748 32.120725,473.98899 32.134789,473.57193 32.135516,473.55041 32.140653,473.39843 32.043203,473.42967 32.036542,473.43181 31.990825,473.44648 31.926736,473.46712"/>
	<polyline points="35.156693,474.82362 35.156631,474.82193 35.147946,474.58297 35.157614,474.49657 35.168026,474.40355 35.177125,474.32227 35.187383,474.23069 35.196444,474.14980 35.196910,474.14564 35.196960,474.14519 35.233797,473.81661 35.317586,473.46718 35.326663,473.42935 35.396642,473.25283 35.486859,473.02539 35.500261,472.95578 35.432453,472.88719 35.430944,472.84846 35.430334,472.83282 35.545214,472.74181 35.673176,472.71941 35.708200,472.69882 35.825034,472.55766 35.831724,472.49393 35.851981,472.48612 36.152634,472.37027 36.191236,472.37872 36.208704,472.38255 36.218626,472.46919 36.298688,472.55734 36.369862,472.63572 36.523567,472.76397 36.563701,472.77498 36.647346,472.79791 36.728639,472.74417 36.702866,472.61118 36.695099,472.52099 36.693630,472.50393 36.692830,472.49464 36.700240,472.44330 36.710787,472.43725 36.719575,472.43222 36.761713,472.40810 36.761775,472.40807 36.764886,472.40629 36.822390,472.41601 36.889787,472.42740 36.914961,472.43165 36.923931,472.43317 36.924012,472.43318 36.952128,472.30127 36.952551,472.20477 36.930683,472.15195 36.899433,472.15205 36.835570,472.15224 36.731790,472.08633 36.729217,472.08469 36.728672,472.08353 36.722762,472.07098 36.718071,472.06101 36.660471,471.93873 36.629790,471.87362 36.581957,471.77213 36.580120,471.76988 36.421420,471.57526 36.337652,471.55695 36.312206,471.57184 36.312237,471.61217 36.310120,471.65977 36.294654,471.68903 36.277539,471.71211 36.262447,471.71482 36.251658,471.71676 36.226397,471.71416 36.204720,471.70108 36.178547,471.65366 36.152754,471.62633 36.060526,471.52864 35.909492,471.49318 35.803845,471.46837 35.744690,471.52902 35.577113,471.46138 35.549779,471.45500 35.418641,471.42436 35.273918,471.39055 35.190828,471.37114 35.096305,471.29093 35.030803,471.26232 34.826821,471.25243 34.823582,471.25227 34.820282,471.25160 34.748069,471.23709 34.724510,471.23237 34.643579,471.21614 34.634719,471.21437 34.631655,471.20117 34.625863,471.17622 34.631022,471.15016 34.632367,471.14337 34.669861,470.95403 34.670801,470.94929 34.723893,470.92392 34.745722,470.93510 34.799500,470.92420 34.868729,470.91025 34.886059,470.87451 34.913609,470.81770 34.915932,470.81291 34.955275,470.73179 34.911863,470.58718 34.865142,470.55595 34.818418,470.60026 34.732657,470.58881 34.706814,470.57133 34.630537,470.51974 34.551469,470.46627 34.549837,470.46516 34.492409,470.37191 34.491809,470.37094 34.481539,470.34414 34.478719,470.33678 34.483930,470.31222 34.425387,470.26910 34.357302,470.31116 34.313421,470.33828 34.302535,470.34021 34.234764,470.35227 34.199085,470.33863 34.143060,470.28969 34.141427,470.28826 34.129217,470.27759 34.089977,470.24332 34.090221,470.22967 34.090222,470.22961 34.092614,470.09604 34.100014,470.02019 34.138832,469.94325 34.156400,469.93763 34.261678,469.90394 34.300542,469.87529 34.351975,469.81970 34.320513,469.77486 34.282391,469.77891 34.177462,469.79005 34.068386,469.80164 34.040445,469.91024 34.016207,470.00447 34.017629,470.18047 34.013964,470.18680 33.990664,470.22710 33.974360,470.21135 33.877478,470.11778 33.875410,470.09140 33.873223,470.06350 33.810460,470.00040 33.686493,469.87594 33.680127,469.86336 33.653525,469.81080 33.645929,469.79580 33.619562,469.68979 33.629913,469.63955 33.642160,469.63701 33.663733,469.63255 33.674190,469.57624 33.675743,469.56788 33.699003,469.51681 33.699955,469.51472 33.737530,469.50349 33.762360,469.49606 33.782532,469.47412 33.769563,469.46370 33.764864,469.44843 33.762680,469.44133 33.760243,469.40491 33.760605,469.39857 33.763073,469.35548 33.774920,469.33076 33.792589,469.29389 33.808911,469.25985 33.852866,469.16822 33.911881,469.04525 33.912644,468.98162 33.826428,469.01563 33.755463,469.09518 33.735514,469.11756 33.694222,469.12453 33.674713,469.11986 33.542357,469.08822 33.469820,469.02608 33.453897,468.97880 33.402016,468.82479 33.391773,468.79439 33.409715,468.67619 33.471568,468.58336 33.507022,468.53015 33.490362,468.47358 33.466452,468.39241 33.460314,468.37158 33.460481,468.37046 33.465241,468.33853 33.465924,468.33394 33.466397,468.33077 33.469273,468.31148 33.486159,468.28008 33.511583,468.23280 33.538868,468.18208 33.576308,468.15356 33.584058,468.14765 33.595674,468.13881 33.694853,468.14086 33.775151,468.14253 33.857894,468.16678 33.927845,468.18728 33.955212,468.14863 34.003993,468.11374 34.009296,468.10995 34.033647,468.09253 34.138292,468.07932 34.239698,468.10150 34.279507,468.16975 34.365592,468.31739 34.367330,468.34157 34.368396,468.35641 34.371440,468.39877 34.368146,468.41107 34.361198,468.43704 34.210631,468.51377 34.195760,468.54991 34.278182,468.57253 34.482763,468.57873 34.487597,468.53682 34.493296,468.48743 34.508906,468.45529 34.529763,468.41235 34.536155,468.39919 34.567328,468.33502 34.575110,468.31900 34.603218,468.27652 34.647503,468.20958 34.683953,468.17274 34.733996,468.12217 34.898888,468.10930 34.951434,468.09164 35.057274,468.05609 35.223518,467.96391 35.245023,467.95199 35.310535,467.92697 35.390436,467.89645 35.440461,467.83836 35.521663,467.66570 35.564353,467.60906 35.580000,467.58830 35.597678,467.57212 35.669045,467.50681 35.681766,467.49519 35.715133,467.46471 35.782904,467.43026 35.790009,467.35486 35.807141,467.17312 35.808195,467.16736 35.839940,466.99396 35.851126,466.98297 35.905074,466.92997 36.071527,466.59221 36.118661,466.51584 36.242921,466.31459 36.272903,466.27987 36.435190,466.09196 36.447658,466.01336 36.401259,465.97796 36.401069,465.97781 36.373175,465.95653 36.369546,465.91982 36.369528,465.91963 36.364529,465.86906 36.401986,465.67261 36.391593,465.61809 36.340271,465.62282 36.337565,465.62307 36.182593,465.52468 36.165090,465.38914 36.164240,465.38256 36.164167,465.38200 36.163619,465.37775 36.160092,465.35045 36.192520,465.24906 36.163200,465.19927 36.097582,465.17528 36.032918,465.25712 35.958432,465.26505 35.821394,465.20376 35.830223,465.15486 35.837581,465.11411 35.844433,465.10331 35.926385,464.97418 35.971112,464.92889 36.131913,464.76613 36.197880,464.69938 36.223074,464.67389 36.268077,464.66240 36.312194,464.65114 36.340246,464.68359 36.342276,464.68174 36.390941,464.63738 36.462279,464.57237 36.479705,464.55649 36.542331,464.47526 36.599893,464.44010 36.669009,464.44436 36.754101,464.52135 36.874798,464.54397 36.910769,464.51073 37.067708,464.36574 37.112217,464.32463 37.124587,464.31321 37.155491,464.22717 37.176353,464.16910 37.166895,464.11577 37.172166,464.09061 37.178055,464.06252 37.271862,463.89645 37.289564,463.86512 37.307107,463.73954 37.337549,463.52174 37.256852,463.32198 37.251367,463.30840 37.195132,463.21926 37.184613,463.14374 37.200636,463.04691 37.230733,462.99200 37.230744,462.99198 37.268019,462.92398 37.375500,462.78868 37.391949,462.76797 37.559160,462.59891 37.582783,462.57505 37.603303,462.55949 37.664787,462.51289 37.673200,462.50651 37.729757,462.46365 37.747015,462.45057 37.767416,462.43511 37.966567,462.35394 38.126624,462.28872 38.255381,462.23626 38.499533,462.18273 38.523108,462.17759 38.563165,462.16885 38.621229,462.16384 39.024720,462.12904 39.264142,462.10839 39.286746,462.09222 39.385486,462.02162 39.391848,462.01707 39.393815,462.01566 39.395485,462.01184 39.401076,461.99906 39.403742,461.99296 39.417264,461.96205 39.487911,461.88075 39.505244,461.87967 39.508898,461.87944 39.524896,461.87844 39.541574,461.89601 39.590237,461.94726 39.626769,461.98573 39.664875,462.02588 39.717665,462.08149 39.728773,462.09320 39.730655,462.09518 39.819836,462.15203 39.843032,462.16681 39.888264,462.19565 40.112650,462.29243 40.114582,462.29201 40.114927,462.29193 40.172161,462.27941 40.181868,462.28219 40.183296,462.28260 40.224340,462.29439 40.362483,462.33408 40.510596,462.37683 40.614987,462.36671 40.662074,462.36214 40.672978,462.36109 40.731037,462.38329 40.733207,462.38412 40.785034,462.40394 40.839925,462.42494 40.870398,462.43659 40.889519,462.44391 40.967978,462.46362 41.009911,462.47415 41.126385,462.50342 41.137371,462.50618 41.143930,462.50783 41.154269,462.51043 41.187072,462.52599 41.292086,462.57581 41.328170,462.59293 41.414383,462.63395 41.419586,462.63642 41.485150,462.66762 41.496469,462.67981 41.506157,462.69024 41.607867,462.79976 41.617399,462.81002 41.618229,462.81092 41.622111,462.81510 41.660287,462.89790 41.661496,462.90052 41.661178,462.97614 41.660082,463.23707 41.648704,463.38338 41.638202,463.51849 41.627426,463.65717 41.658145,463.70399 41.701988,463.77083 41.679744,463.80859 41.603329,463.82436 41.503226,463.90506 41.500327,463.95449 41.494834,464.04817 41.459392,464.22470 41.455830,464.24245 41.336079,464.25378 41.257205,464.22500 41.162115,464.05178 41.160025,463.91836 41.160449,463.87391 41.161292,463.78577 41.162726,463.77100 41.170766,463.68817 41.154590,463.66714 41.141722,463.67598 41.114866,463.73385 41.099359,463.92072 41.096746,464.35236 41.087795,464.56626 41.074976,464.87287 41.063679,464.94108 41.030280,465.14282 41.026069,465.16827 40.979837,465.31162 40.931153,465.40037 40.829521,465.52127 40.706694,465.61244 40.507981,465.72439 40.499270,465.72929 40.440420,465.73515 40.321152,465.70712 40.263080,465.67840 40.248767,465.67132 40.192208,465.61856 40.178770,465.60602 40.147848,465.54838 40.113843,465.48501 40.107649,465.44047 40.105661,465.42619 40.123439,465.35278 40.178594,465.28239 40.174958,465.26685 40.140816,465.26871 40.092680,465.29606 40.000238,465.38956 39.914180,465.55868 39.795623,465.69214 39.749574,465.72350 39.710990,465.72505 39.696236,465.76040 39.758087,465.86108 39.862081,465.92316 40.017504,465.95758 40.163097,465.96036 40.403554,465.91575 40.451806,465.89894 40.767555,465.78900 41.041590,465.64132 41.238991,465.48004 41.283328,465.42488 41.436046,465.23504 41.443120,465.22626 41.448437,465.21675 41.539002,465.05484 41.618308,464.91313 41.737309,464.65763 41.826997,464.46519 41.846267,464.40709 41.967181,464.04275 42.055475,463.68916 42.112511,463.46096 42.152155,463.30244 42.224628,462.90905 42.225546,462.90407 42.254158,462.49065 42.255594,462.46992 42.278011,462.14649 42.277266,461.99368 42.276996,461.93831"/>
	<polyline points="15.091597,474.14303 15.252778,474.13060 15.504892,474.11115 15.518975,474.11007 15.920455,474.07910 16.244393,474.05455"/>
	<polyline points="31.925397,473.46761 31.860738,473.48848 31.798679,473.50851 31.720572,473.49726 31.620678,473.46770"/>
	<polyline points="31.926005,473.46737 31.925397,473.46761"/>
	<polyline points="31.926736,473.46712 31.926005,473.46737"/>
	<polyline points="16.244393,474.05455 16.244393,474.05455"/>
	<polyline points="16.244393,474.05455 16.522569,474.03348 16.664801,474.02271 16.674923,474.02194 16.755408,474.01584 16.865404,474.00751 17.070511,473.99224 17.855674,473.93237 18.368027,473.89398 18.559567,473.87963 18.818418,473.86030 18.966241,473.84813 19.041818,473.84190 19.061066,473.84032 19.918110,473.77003 20.539038,473.71976 20.773690,473.70092 21.208220,473.66634 21.684259,473.62858"/>
	<polyline points="31.620678,473.46770 31.536158,473.40106 31.533608,473.39826 31.533233,473.39785 31.432336,473.28716 31.368304,473.17886 31.337691,473.12709 31.255454,473.02852 31.208283,472.97199 31.053806,472.97728 31.024553,472.97831 30.913448,472.98227 30.795315,472.99273 30.736257,472.99796 30.627438,473.00452 30.609704,473.00558 30.596662,473.00637 30.175591,473.03175 30.077677,473.03768 29.869188,473.05053 29.641569,473.06457 29.623119,473.06570 29.176952,473.09321 29.142444,473.09536 29.091076,473.09859 28.540446,473.13329 28.445496,473.13928"/>
	<polyline points="21.684259,473.62858 21.923434,473.60906 22.030711,473.60030 22.064366,473.59755 22.670021,473.54829 22.670021,473.54829 23.094959,473.51420 23.106438,473.51336 23.119255,473.51243 24.415180,473.41946 24.525225,473.41090 24.794547,473.39001 24.803583,473.38931 25.585517,473.32894 25.793635,473.31596 26.015803,473.30211"/>
	<polyline points="15.091597,474.14303 15.011487,473.89935 14.941386,473.68627 14.684096,472.90525 14.239658,471.55926"/>
	<polyline points="28.409493,473.14150 28.283447,473.14913 28.137477,473.15808 27.668619,473.18712 27.512660,473.19678 27.328428,473.20948 27.294246,473.21183 27.211142,473.21764 26.875217,473.24126 26.278234,473.28330 26.261956,473.28447 26.015803,473.30211"/>
	<polyline points="28.409493,473.14150 28.445496,473.13928"/>
	<polyline points="14.239658,471.55926 13.936073,470.63379 13.866754,470.42271 13.768535,470.12392 13.670183,469.82496 13.469954,469.21685 13.186198,468.35649 12.959256,467.66948 12.711167,466.91965 12.782939,466.50849"/>
	<polyline points="14.457357,466.39234 14.442118,466.39365 14.181162,466.41605 13.805627,466.44829 13.313805,466.49097 13.285346,466.49179 13.281129,466.49191 12.862096,466.50395"/>
	<polyline points="12.862096,466.50395 12.782939,466.50849"/>
	<polyline points="14.468285,466.39130 14.457357,466.39234"/>
	<polyline points="14.980764,466.34358 14.958009,466.34569 14.468285,466.39130"/>
	<polyline points="14.991141,466.34231 14.980764,466.34358"/>
	<polyline points="18.017856,466.11914 17.063989,466.17183 17.016936,466.17447 16.893939,466.18136 16.822824,466.18683 16.449961,466.21561 15.467022,466.30058 14.991141,466.34231"/>
	<polyline points="18.018799,466.11909 18.017856,466.11914"/>
	<polyline points="18.811115,465.74973 18.803848,465.69776 18.774547,465.69482 18.386994,465.65601 18.432784,466.08682 18.256167,466.09763 18.243034,466.09844 18.154802,466.10385 18.018799,466.11909"/>
	<polyline points="26.819293,465.44639 26.813275,465.61894 26.779735,465.62045 26.495719,465.63324 26.475981,465.63413 26.441614,465.63568 26.327682,465.64081 26.305388,465.64182 26.272409,465.64330 26.220300,465.64565 26.180929,465.64742 26.129224,465.64975 26.067320,465.65254 25.978851,465.65868 25.967445,465.65947 25.818986,465.66978 25.559659,465.68780 25.268918,465.70800 25.226643,465.70980 25.221143,465.71004 25.196252,465.71110 25.080187,465.71610 24.947685,465.72194 24.875684,465.72511 24.638455,465.73557 24.605593,465.73852 24.338932,465.76248 24.041932,465.78932 23.980884,465.79259 23.921116,465.79579 23.520010,465.81725 23.477500,465.81952 23.100047,465.83985 22.925598,465.84755 22.779297,465.85401 22.540294,465.86455 22.508126,465.86644 22.127391,465.88895 21.791214,465.90914 21.512326,465.92590 21.441023,465.93018 21.386031,465.93348 21.373693,465.93404 21.357696,465.93477 21.280289,465.93830 20.928286,465.95478 20.845933,465.95864 20.794626,465.96104 20.769591,465.95899 20.766006,465.95870 20.587850,465.94412 20.516790,465.93830 20.419315,465.93032 20.341427,465.87295 20.276005,465.87572 20.137864,465.88494 20.132305,465.94970 20.057956,465.95742 19.841615,465.97989 19.485506,466.03508 19.437864,466.04247 19.406637,466.04731 19.385793,466.04792 19.380153,466.04808 19.254683,466.05193 19.215760,466.05312 18.910354,466.06249"/>
	<polyline points="18.910354,466.06249 18.894863,466.03090 18.927394,466.01612 18.941371,465.99436 18.919984,465.94190 18.889417,465.89375"/>
	<polyline points="18.889417,465.89375 18.883713,465.89308"/>
	<polyline points="29.301265,465.47108 29.317006,465.47091 29.346573,465.47058 29.437580,465.46958 29.647524,465.46728 30.283011,465.46085 30.272031,465.08553 30.266092,464.88238"/>
	<polyline points="29.301265,465.47108 29.292952,465.47021"/>
	<polyline points="29.292952,465.47021 29.283853,465.46955 29.073685,465.45436"/>
	<polyline points="29.073685,465.45436 29.071168,465.45332"/>
	<polyline points="28.807351,465.45386 28.999962,465.45342 29.071168,465.45332"/>
	<polyline points="28.662612,465.45555 28.781103,465.45417 28.807351,465.45386"/>
	<polyline points="26.819293,465.44639 27.095117,465.45604 27.799988,465.45540 28.547612,465.45550 28.662612,465.45555"/>
	<polyline points="18.883713,465.89308 18.864261,465.90485 18.850917,465.90189 18.848741,465.88250 18.852029,465.87418 18.855875,465.86446 18.868679,465.85068 18.855083,465.82458 18.837639,465.80532 18.835918,465.77142 18.811115,465.74973"/>
	<polyline points="30.266334,464.86126 30.266092,464.88238"/>
	<polyline points="30.251749,464.39605 30.262086,464.72574 30.266334,464.86126"/>
	<polyline points="30.250858,464.39385 30.251749,464.39605"/>
	<polyline points="30.250858,464.39385 30.248865,464.32216 30.244868,464.17844 30.241753,464.06629 30.284310,464.07400"/>
	<polyline points="30.593657,464.06100 30.594377,464.06696 30.600087,464.11416 30.591982,464.11308 30.483421,464.09850"/>
	<polyline points="30.483421,464.09850 30.466768,464.09674"/>
	<polyline points="30.466768,464.09674 30.401785,464.08853"/>
	<polyline points="30.401785,464.08853 30.383473,464.08682"/>
	<polyline points="30.377635,464.08587 30.383473,464.08682"/>
	<polyline points="30.377635,464.08587 30.330962,464.07938"/>
	<polyline points="30.307671,464.07780 30.330962,464.07938"/>
	<polyline points="30.284310,464.07400 30.307671,464.07780"/>
	<polyline points="30.593657,464.06100 30.593596,464.05878"/>
	<polyline points="30.589657,463.39552 30.610131,463.41495 30.557809,463.50752 30.554813,463.51982 30.555943,463.52279 30.556491,463.52422 30.628187,463.71226 30.612229,463.78031 30.600516,463.83026 30.599862,463.83305 30.577579,463.92812 30.588971,464.02104 30.593596,464.05878"/>
	<polyline points="30.589657,463.39552 30.572535,463.37710"/>
	<polyline points="30.572535,463.37710 30.540724,463.34672 30.527309,463.33390 30.506720,463.28002 30.568897,463.12163 30.571178,463.11378 30.567310,463.09389"/>
	<polyline points="30.567310,463.09389 30.566675,463.07057 30.552941,463.02428 30.553197,463.00316 30.564224,462.98063 30.592852,462.96317 30.608557,462.95941 30.622019,462.93459 30.635635,462.89713 30.639271,462.88712 30.644459,462.87285 30.642366,462.82624 30.654201,462.80259"/>
	<polyline points="30.654201,462.80259 30.736834,462.75142"/>
	<polyline points="30.736834,462.75142 31.198679,462.47481 31.273238,462.35451 31.303255,462.30609 31.324815,462.27132 31.483022,462.01625 31.509490,461.97087 31.621938,461.77814"/>
	<polyline points="42.276996,461.93831 42.275328,461.59632 42.246321,461.43417 42.232335,461.35601 42.153597,461.18272 42.126730,461.12361 42.108750,461.08406 42.092091,461.05618 42.080888,461.03744 42.078459,461.03338 42.069719,461.03124 42.034064,461.02250 42.019134,461.01884 41.977111,460.95675 41.937719,460.88735 41.863014,460.62351 41.807828,460.38149 41.761108,460.09414 41.759878,460.08657 41.758980,460.08105 41.756990,460.07815 41.675369,459.95927 41.624585,459.94286 41.563233,459.95249 41.538951,459.98174 41.521886,460.04010 41.533690,460.06278 41.534900,460.06510 41.536691,460.06489 41.554632,460.06282 41.571674,460.06085 41.648873,460.16280 41.710593,460.32746 41.736250,460.46892 41.774161,460.67803 41.774353,460.67909 41.807201,460.77572 41.810968,460.78680 41.832759,460.85092 41.841615,460.87699 41.860975,460.93397 41.895306,461.03503 41.896382,461.03820 41.896137,461.10390 41.875623,461.17937 41.833158,461.21711 41.829291,461.22055 41.705486,461.33062 41.673237,461.34885 41.617378,461.38043 41.570248,461.38439 41.566380,461.38472 41.557494,461.38546 41.430946,461.33998 41.363607,461.33081 41.360912,461.33044 41.212632,461.31039 41.133232,461.30504 40.954582,461.29299 40.931661,461.29144 40.692204,461.21819 40.659562,461.20821 40.584448,461.18523 40.499920,461.15938 40.429245,461.16036 40.355077,461.16139 40.352166,461.16143 40.081239,461.10774 40.080958,461.10763 40.055459,461.09764 40.054441,461.09724 39.837311,461.01217 39.709156,460.96197 39.622133,460.92788 39.534718,460.84271 39.540789,460.80757 39.504873,460.73392 39.456105,460.71762 39.438340,460.73540 39.421964,460.81184 39.427906,460.90023 39.415127,460.92372 39.384167,460.98064 39.327906,461.00591 39.250457,461.00790 39.128212,460.98519 38.991722,460.95984 38.988397,460.96207 38.986394,460.96342 38.922982,461.00610 38.898829,461.01346 38.889076,461.01643 38.855460,461.02668 38.742173,461.01010 38.668925,460.97105 38.630344,460.92336 38.630942,460.89433 38.631041,460.88948 38.587099,460.80373 38.508836,460.75466 38.329378,460.70226 38.324667,460.70310 38.323975,460.70322 38.281918,460.71073 38.263273,460.71406 38.240462,460.71231 38.231011,460.71159 38.061167,460.69857 38.023657,460.69570 37.954120,460.54678 37.932411,460.51195 37.907016,460.47122 37.841407,460.36600 37.831833,460.35065 37.817093,460.32702 37.805205,460.31342 37.798903,460.30621 37.742189,460.24131 37.736757,460.23510 37.689689,460.18125 37.615248,460.13765 37.611197,460.13528 37.607830,460.13406 37.546785,460.11193 37.491135,460.10503 37.303633,460.08200 37.258024,460.08179 37.225865,460.08164 37.096174,460.08106 36.991893,460.08059 36.985983,460.07988 36.902914,460.06992 36.869964,460.06596 36.812557,460.05908 36.748727,460.05142 36.746105,460.05111 36.705573,460.04625 36.683545,460.04361 36.598995,460.03347 36.562155,460.02905 36.528383,460.02026 36.519726,460.01800 36.500607,460.01303 36.465175,460.00382 36.373268,459.98002 36.300332,459.92512 36.294516,459.92075 36.288438,459.91617 36.276594,459.89696 36.261516,459.87251 36.200462,459.77352 36.198200,459.76985 36.157554,459.74329 36.115760,459.71599 36.068361,459.70922 36.019298,459.70222 35.767104,459.53001 35.521689,459.41991 35.327094,459.24156 35.331967,459.19770 35.294234,459.14261 35.045279,458.98552 34.817811,458.98161 34.667373,458.94487 34.663326,458.94388 34.546493,458.83317 34.478528,458.76883 34.399016,458.73294 34.203947,458.72772 34.099379,458.72493 33.885522,458.67099 33.808559,458.62645 33.714767,458.60158 33.693564,458.63075 33.704347,458.66990 33.889617,458.84290 33.926806,458.83598 33.964875,458.77498 34.026031,458.76456 34.073370,458.77711 34.265172,458.84543 34.502938,459.02516 34.727903,459.10439 34.949093,459.14885 35.072658,459.29896 35.177694,459.32850 35.359401,459.48902 35.435248,459.58419 35.860066,459.84989 35.929003,459.89305 35.969126,459.91816 36.094439,459.99662 36.108051,460.00514 36.141816,460.02629 36.148186,460.03028 36.163247,460.03971 36.165383,460.04105 36.179190,460.06736 36.203115,460.11296 36.195860,460.19720 36.209713,460.28203 36.253396,460.33350 36.304221,460.36044 36.309992,460.38005 36.317945,460.40709 36.320272,460.41500 36.312382,460.47891 36.310801,460.48368 36.310228,460.48541 36.274989,460.59170 36.259332,460.63893 36.230323,460.72646 36.231913,460.74429 36.235240,460.78161 36.282824,460.85480 36.322058,460.91516 36.332858,460.93178 36.338136,460.93990 36.301600,461.02726 36.296308,461.03991 36.291078,461.04413 36.235889,461.08865 36.252984,461.14994 36.255525,461.15905 36.297075,461.18266 36.343330,461.20894 36.354267,461.21516 36.364206,461.27212 36.353664,461.31390 36.353582,461.31422 36.312255,461.47803 36.297017,461.53844 36.272770,461.56679 36.171485,461.57780 36.303159,461.70893 36.474965,461.75998 36.479425,461.78572 36.482199,461.80172 36.491666,461.85635 36.468911,461.91896 36.436401,461.93406 36.333453,461.98188 36.319500,461.98836 36.265134,461.95316 36.219285,461.95056 36.105413,462.02510 36.027105,462.05185 36.011451,462.05720 35.952722,462.07726 35.793479,462.13167 35.724627,462.17521 35.706833,462.18646 35.666037,462.16589 35.658322,462.16200 35.643019,462.15429 35.623320,462.06887 35.619307,462.05148 35.680457,461.93404 35.708287,461.72260 35.688616,461.62326 35.607587,461.65969 35.493905,461.75270 35.484726,461.76022 35.418938,461.74055 35.393001,461.73280 35.390757,461.72491 35.389003,461.71874 35.385382,461.70601 35.375624,461.67170 35.337978,461.53936 35.337806,461.53751 35.328602,461.43877 35.361777,461.36577 35.364998,461.28840 35.296822,461.14886 35.264617,461.14476 35.229392,461.18868 35.212477,461.23470 35.205261,461.25275 35.204943,461.25283 35.193106,461.25585 35.107047,461.27787 35.106728,461.27795 35.106705,461.27795 35.106679,461.27796 34.993252,461.30697 34.936698,461.32144 34.907398,461.31490 34.901819,461.31365 34.880806,461.28217 34.874029,461.20676 34.970240,461.15101 34.989050,461.09428 35.005111,461.04584 34.997528,461.02111 34.991152,461.01702 34.919676,460.97119 34.711186,460.97175 34.644144,461.01865 34.638359,461.02270 34.568287,461.00123 34.547524,460.97350 34.546726,460.97244 34.545594,460.97093 34.550052,460.92648 34.556639,460.86082 34.579800,460.63010 34.578905,460.62775 34.576051,460.62023 34.553811,460.56170 34.519577,460.56672 34.504266,460.61757 34.497945,460.63856 34.484408,460.68353 34.429682,460.86536 34.428831,460.86820 34.429567,460.87832 34.432421,460.91752 34.435288,460.95692 34.425466,460.98984 34.422707,460.99263 34.400665,461.01491 34.356073,461.03435 34.319909,461.05012 34.264084,461.07446 34.210872,461.03596 34.131319,460.97842 34.123871,460.97303 34.123869,460.97303 34.060865,460.92746 34.072112,460.91135 34.088073,460.88848 34.108951,460.85858 34.123969,460.83707 34.131001,460.82700 34.138231,460.78667 34.164717,460.63899 34.152804,460.62815 34.074917,460.66322 34.063932,460.69586 34.029810,460.79726 34.025976,460.80236 34.014052,460.81820 34.001523,460.83484 33.973103,460.83785 33.960295,460.83920 33.950999,460.84018 33.942493,460.84108 33.920799,460.82185 33.920324,460.81140 33.916396,460.72492 33.916242,460.72155 33.933534,460.66034 33.936379,460.65027 33.934741,460.64522 33.932595,460.63862 33.931391,460.63491 33.901049,460.54148 33.844005,460.46738 33.843785,460.46769 33.814810,460.50821 33.780082,460.50946 33.770448,460.50981 33.756896,460.49108 33.754217,460.48738 33.763131,460.43934 33.765350,460.42739 33.767328,460.42493 33.842202,460.33215 33.888387,460.05265 33.802956,460.05400 33.495207,459.95565 33.488175,459.95341 33.451229,459.84529 33.282763,459.75255 33.147784,459.72177 33.111524,459.69387 33.010351,459.61601 32.821001,459.69733 32.735533,459.71327 32.594501,459.73960 32.299947,459.61532 32.299946,459.61532"/>
	<polyline points="31.621938,461.77814 31.622570,461.77705 31.624764,461.77325 31.678577,461.68023 31.723086,461.60335"/>
	<polyline points="31.723086,461.60335 31.733823,461.59975"/>
	<polyline points="31.760396,461.59258 31.760442,461.59342"/>
	<polyline points="31.733823,461.59975 31.760396,461.59258"/>
	<polyline points="31.760442,461.59342 31.815575,461.57864 31.842228,461.57150"/>
	<polyline points="31.842228,461.57150 31.886041,461.55819"/>
	<polyline points="31.886041,461.55819 31.884396,461.52601"/>
	<polyline points="31.884396,461.52601 31.884283,461.52157"/>
	<polyline points="31.884283,461.52157 31.998428,461.49100 32.067172,461.47259"/>
	<polyline points="32.067172,461.47259 32.134409,461.45640"/>
	<polyline points="32.222717,461.42873 32.134409,461.45640"/>
	<polyline points="32.222717,461.42873 32.226880,461.42862"/>
	<polyline points="32.226880,461.42862 32.241758,461.42381 32.243200,461.40869 32.223340,461.21496"/>
	<polyline points="32.223340,461.21496 32.223273,461.21425"/>
	<polyline points="32.299946,459.61532 32.291409,459.89002 32.264968,460.26405 32.236273,460.67076 32.234164,460.68870 32.187584,460.78588 32.182814,460.79136 32.177513,460.79746 32.162483,460.81473 32.160435,460.84037 32.157835,460.93677 32.168663,461.02335 32.209725,461.07242 32.223273,461.21425"/>
	<polyline points="34.740979,460.76177 34.801401,460.68148 34.822324,460.56001 34.814799,460.51721 34.813111,460.50761 34.812922,460.50654 34.808549,460.50846 34.747892,460.53509 34.745357,460.53620 34.744339,460.53808 34.685027,460.64804 34.678293,460.66053 34.678248,460.66061 34.725686,460.75452 34.734021,460.77102 34.740979,460.76177"/>
	<polyline points="36.355350,459.20242 36.225756,459.12561 36.185819,459.09884 35.907871,458.91260 35.784490,458.79939 35.696580,458.62933 35.688180,458.56317 35.687281,458.55609 35.585341,458.44802 35.544453,458.43533 35.208078,457.95595 35.208072,457.95595 35.202678,457.94827 35.150948,457.90413 35.086946,457.89175 35.081059,457.89062 35.076671,457.89277 34.984874,457.93790 34.940226,457.95985 34.840124,457.98353 34.735388,457.97048 34.659774,457.96106 34.619024,457.89699 34.616700,457.89334 34.618704,457.89047 34.666480,457.82202 34.774036,457.66798 34.916089,457.52059 34.919083,457.51851 34.934303,457.50795 35.029607,457.44179 35.060907,457.42007 35.134220,457.36919 35.193257,457.39818 35.215551,457.45614 35.200751,457.48973 35.234309,457.56398 35.284849,457.60743 35.376159,457.68595 35.486034,457.74700 35.497120,457.75317 35.509407,457.75674 35.685586,457.80786 35.694353,457.81040 35.702502,457.81098 36.185959,457.84532 36.558823,457.87197 36.584697,457.87384 36.621867,457.87653 36.752184,457.87329 36.979515,457.86763 37.130985,457.86386 37.177203,457.85938 37.211066,457.85609 37.285216,457.84889 37.352334,457.84237 37.482983,457.82979 37.705062,457.83725 37.856824,457.84235 37.860436,457.84247 37.861713,457.84561 37.885065,457.90303 37.881622,458.20038 37.909977,458.37824 37.879386,458.64775 37.767096,458.63233 37.707791,458.56369 37.691041,458.52480 37.688234,458.51828 37.688373,458.50990 37.690019,458.41132 37.620372,458.31505 37.588105,458.27045 37.540246,458.24452 37.535299,458.24184 37.520624,458.24376 37.470372,458.25035 37.466861,458.25081 37.447439,458.26282 37.442880,458.30673 37.439800,458.33640 37.403842,458.42599 37.402832,458.42851 37.316167,458.46868 37.315989,458.46876 37.314908,458.46926 37.223245,458.48570 37.142813,458.53314 37.066673,458.60770 37.062585,458.61604 37.022081,458.69870 37.002638,458.77601 37.027229,458.91453 37.026429,459.01040 37.026429,459.01041 37.026343,459.02072 37.012769,459.05132 36.990528,459.10146 36.946036,459.20178 36.913522,459.22472 36.912418,459.22550 36.908452,459.22352 36.849244,459.19389 36.756142,459.21673 36.671035,459.23761 36.654864,459.34059 36.612446,459.35505 36.355350,459.20242"/>
	<polyline points="41.179940,457.43310 41.105430,457.35749 40.940804,457.25262 40.856307,457.23868 40.836765,457.23581 40.598635,457.20090 40.585169,457.19892 39.983742,457.21542 39.879348,457.16757 39.704752,457.17002 39.661741,457.19890 39.616721,457.22913 39.582113,457.31645 39.541977,457.34388 39.447627,457.39482 39.323013,457.40071 39.338701,457.30125 39.393665,457.22193 39.481500,457.15041 39.590484,457.10757 39.639658,457.08824 39.923661,456.93110 40.192480,456.78243 40.245929,456.76316 40.626289,456.62657 40.641304,456.62500 40.807930,456.60760 40.923458,456.64555 40.962826,456.64211 41.178223,456.62328 41.306647,456.60030 41.492525,456.56707 41.606997,456.58132 41.744619,456.63464 41.830786,456.66804 41.909126,456.72348 41.920302,456.74672 41.957057,456.85707 41.957995,457.01455 41.838575,457.26636 41.482554,458.01812 41.358813,458.21036 41.229684,458.27724 41.224900,458.23508 41.257583,458.18690 41.316222,458.10628 41.343222,458.05892 41.378040,458.00624 41.394768,457.92240 41.370917,457.69409 41.245088,457.49923 41.179940,457.43310"/>
</g>
</g>
</svg>
